<svg width="97" height="97" viewBox="0 0 97 97" fill="none" xmlns="http://www.w3.org/2000/svg">
<g clip-path="url(#clip0_2244_8701)">
<path d="M79.3776 57.9597L67.512 51.1089C65.8852 50.1693 63.8048 50.7269 62.866 52.3537C61.9264 53.9805 62.484 56.0609 64.1104 57.0001L73.1716 62.2321C69.5676 68.3629 63.7316 72.8353 56.7788 74.6985C49.7604 76.5785 42.4308 75.6137 36.1388 71.9813C29.8464 68.3481 25.3456 62.4829 23.4652 55.4645C21.5844 48.4469 22.5496 41.1169 26.182 34.8241C29.8148 28.5325 35.6804 24.0313 42.6984 22.1505C49.6916 20.2769 57.0168 21.2525 63.2232 24.8057L59.8416 30.6637C55.2144 28.0301 49.6996 27.2833 44.4508 28.6889C39.1796 30.1013 34.7736 33.4817 32.0444 38.2081C29.3156 42.9345 28.5908 48.4405 30.0032 53.7125C31.416 58.9837 34.7964 63.3897 39.5228 66.1189C44.2496 68.8485 49.7552 69.5729 55.0272 68.1601C56.3624 67.8021 57.6604 67.3105 58.8852 66.6981C60.566 65.8585 61.2472 63.8157 60.408 62.1353C59.5688 60.4549 57.5256 59.7725 55.8448 60.6125C55.0276 61.0209 54.1604 61.3493 53.2664 61.5885C49.7492 62.5309 46.0776 62.0473 42.9244 60.2273C39.7716 58.4073 37.5164 55.4681 36.5744 51.9513C35.6324 48.4349 36.1156 44.7621 37.936 41.6093C39.756 38.4565 42.6948 36.2017 46.2112 35.2593C50.598 34.0845 55.2644 35.1649 58.6956 38.1497C59.4624 38.8165 60.4868 39.1049 61.4892 38.9385C62.4912 38.7709 63.366 38.1641 63.874 37.2841L70.7271 25.4137C71.5968 23.9077 71.1904 21.9889 69.7856 20.9649C63.8516 16.6377 56.8316 14.3957 49.6892 14.4137L48.5116 10.0177C48.0256 8.20294 46.16 7.12654 44.346 7.61254C42.5316 8.09854 41.4544 9.96374 41.9404 11.7785L42.8376 15.1277C42.2032 15.2601 41.5696 15.4101 40.938 15.5789C39.3556 16.0029 37.8224 16.5369 36.3416 17.1681L35.3696 13.5397C34.8836 11.7249 33.0176 10.6481 31.2036 11.1345C29.3888 11.6205 28.3124 13.4857 28.7984 15.3001L30.2104 20.5705C26.198 23.3801 22.8124 27.0541 20.2904 31.4225C15.7496 39.2889 14.5428 48.4521 16.894 57.2249C19.2448 65.9981 24.8708 73.3309 32.7368 77.8721C37.1052 80.3941 41.874 81.8837 46.7536 82.3109L48.166 87.5813C48.5736 89.1005 49.9476 90.1029 51.4496 90.1029C51.7408 90.1029 52.0372 90.0653 52.3316 89.9861C54.1464 89.4997 55.2232 87.6349 54.7372 85.8205L53.7644 82.1913C55.3624 81.9973 56.9576 81.6933 58.5392 81.2697C59.1708 81.1005 59.7948 80.9133 60.4104 80.7105L61.308 84.0601C61.7156 85.5797 63.0896 86.5817 64.5916 86.5817C64.8828 86.5817 65.1796 86.5441 65.474 86.4653C67.2888 85.9793 68.3652 84.1137 67.8792 82.2993L66.7008 77.9025C72.86 74.3661 77.8008 68.9549 80.7812 62.2949C81.4936 60.7037 80.8872 58.8321 79.3772 57.9601" fill="#E83C41"/>
</g>
<defs>
<clipPath id="clip0_2244_8701">
<rect width="96" height="96" fill="white" transform="translate(0.399902 0.800049)"/>
</clipPath>
</defs>
</svg>
